<svg width="46" height="31" viewBox="0 0 46 31" fill="none" xmlns="http://www.w3.org/2000/svg">
<path d="M1.94865 9.04167C0.216517 4.73611 1.51562 2.58333 5.84596 2.58333C7.57809 2.58333 9.09371 4.52083 10.3928 8.39583C11.6919 12.2708 13.2075 12.2708 14.9397 8.39583C16.6718 3.65972 19.27 1.29167 22.7343 1.29167C26.1985 1.29167 28.3637 3.65972 29.2298 8.39583C30.0958 12.2708 31.395 12.2708 33.1271 8.39583C35.7253 2.79861 38.7565 0 42.2208 0C45.6851 0 46.7677 2.58333 45.4685 7.75L41.5712 27.125C41.1382 29.7083 39.6226 31 37.0244 31C34.4262 31 33.5601 29.2778 34.4262 25.8333L37.6739 11.625C38.107 9.47222 37.4574 8.39583 35.7253 8.39583C34.4262 8.39583 33.1271 9.90278 31.828 12.9167L26.6316 25.1875C25.3325 28.2014 23.1673 29.7083 20.1361 29.7083C17.1048 29.7083 14.9397 28.2014 13.6406 25.1875L10.3928 15.5C9.52674 12.9167 8.44416 11.625 7.14506 11.625C5.84596 11.625 5.41292 12.7014 5.84596 14.8542L8.44416 25.8333C9.13701 29.2778 8.05443 31 5.19641 31C2.5982 31 0.866068 29.7083 0 27.125L1.94865 9.04167Z" fill="white" fill-opacity="0.9"/>
</svg>
